<svg width="22" height="22" xmlns="http://www.w3.org/2000/svg">

 <g>
  <title>background</title>
  <rect fill="none" id="canvas_background" height="22" width="22" y="-1" x="-1"/>
 </g>
 <g>
  <title>Layer 1</title>
  <g stroke="null" id="svg_1">
   <path stroke="null" id="svg_2" fill-rule="nonzero" fill="#BDBDBD" d="m3.548996,8.987412l-3.176593,-0.852182c0.756834,-2.811224 2.593828,-5.207304 5.108838,-6.663707l1.643066,2.850854c-1.76001,1.020053 -3.045491,2.697339 -3.57531,4.665034zm5.428689,-5.433755l-0.854395,-3.184698c0.924899,-0.246169 1.8779,-0.370213 2.834836,-0.368995l0,3.294525c-0.668552,0.000105 -1.334262,0.087222 -1.980441,0.259169zm3.982791,0l0.850012,-3.180306c2.802351,0.757088 5.191943,2.595311 6.646749,5.113088l-2.847981,1.647257c-1.017305,-1.761921 -2.688471,-3.048891 -4.64878,-3.58004zm-12.960511,7.428034l3.286141,0c-0.000845,0.67032 0.086067,1.337852 0.258509,1.985495l-3.176593,0.852182c-0.245608,-0.925751 -0.369341,-1.87974 -0.368057,-2.837677zm1.467815,5.490859l2.861125,-1.647258c0.33619,0.580314 0.745583,1.114768 1.21806,1.590153l-2.326581,2.328125c-0.680824,-0.676844 -1.270061,-1.440375 -1.752603,-2.27102zm4.013462,4.019309l1.643065,-2.850855c1.163977,0.6746 2.484964,1.029176 3.829438,1.027889l0,3.294521c-1.921681,0.001836 -3.809673,-0.505843 -5.472504,-1.471555l0.000001,0zm12.123632,-5.657782l2.843599,1.651651c-1.456698,2.517029 -3.847903,4.3537 -6.65113,5.108696l-0.850012,-3.184698c1.962813,-0.528021 3.637321,-1.813559 4.657543,-3.575648zm3.943358,-0.9005l-3.159067,-0.869753c0.350237,-1.306336 0.350237,-2.682223 0,-3.98856l3.185356,-0.852182c0.492644,1.87265 0.483576,3.842484 -0.026289,5.710494z"/>
  </g>
 </g>
</svg>